<svg enable-background="new 0 0 128 128" viewBox="0 0 128 128" xmlns="http://www.w3.org/2000/svg" xmlns:xlink="http://www.w3.org/1999/xlink"><radialGradient id="a" cx="59.468" cy="-6.0703" gradientTransform="matrix(1 0 0 .9763 0 .1153)" gradientUnits="userSpaceOnUse" r="120.22"><stop offset=".2636" stop-color="#e3f2fd"/><stop offset=".9167" stop-color="#90caf9"/></radialGradient><path d="m106.97 37.87c-.68 0-1.35.05-2 .12.52-1.71.81-3.51.81-5.38 0-10.43-8.66-18.88-19.34-18.88-4.55 0-8.72 1.54-12.02 4.11-4.45-8.23-13.29-13.84-23.48-13.84-14.64 0-26.51 11.59-26.51 25.89 0 .51.02 1.02.05 1.53-11.04 1.32-19.59 10.5-19.59 21.63 0 11.91 9.79 21.59 21.94 21.79 4.07 6.9 12.18 11.63 21.55 11.7 9.06.07 17-4.25 21.3-10.72 3.46 3.7 8.43 6.03 13.96 6.03 7.93 0 14.71-4.76 17.53-11.51 1.81.64 3.76 1 5.79 1 9.47 0 17.15-7.49 17.15-16.74 0-9.24-7.68-16.73-17.14-16.73z" fill="url(#a)"/><path d="m50.94 7c8.76 0 16.74 4.7 20.83 12.26.42.78 1.16 1.33 2.02 1.51.21.04.41.06.62.06.66 0 1.31-.22 1.84-.63 2.93-2.27 6.45-3.48 10.18-3.48 9.01 0 16.34 7.12 16.34 15.88 0 1.51-.23 3.03-.68 4.51-.29.97-.08 2.02.56 2.79.57.69 1.42 1.08 2.3 1.08.11 0 .23-.01.34-.02.62-.07 1.16-.1 1.66-.1 7.8 0 14.15 6.16 14.15 13.74s-6.35 13.74-14.15 13.74c-1.61 0-3.23-.28-4.8-.83-.33-.12-.66-.17-.99-.17-1.18 0-2.29.7-2.77 1.84-2.46 5.87-8.25 9.67-14.77 9.67-4.46 0-8.76-1.86-11.78-5.09-.57-.61-1.36-.95-2.19-.95-.08 0-.17 0-.25.01-.91.08-1.74.79-2.25 1.56-3.83 5.8-10.95 9.62-18.56 9.62h-.19c-8.02-1-15.3-4.21-18.99-10.46-.53-.9-1.49-1.57-2.53-1.59-10.47-.18-18.99-8.66-18.99-18.84 0-9.47 7.29-17.51 16.95-18.67 1.58-.19 2.73-1.59 2.64-3.17-.03-.51-.05-.96-.05-1.37 0-12.63 10.55-22.9 23.51-22.9m0-3c-14.64 0-26.51 11.59-26.51 25.89 0 .52.02 1.03.05 1.54-11.04 1.32-19.59 10.49-19.59 21.62 0 11.91 9.79 21.8 21.94 22.01 4.07 6.9 12.17 10.94 21.55 11.94h.21c8.98 0 16.82-4.53 21.08-10.96 3.46 3.7 8.43 5.93 13.98 5.93 7.93 0 14.71-4.82 17.53-11.57 1.81.64 3.76.97 5.79.97 9.47 0 17.15-7.51 17.15-16.75s-7.68-16.75-17.15-16.75c-.68 0-1.35.05-2 .12.52-1.71.81-3.51.81-5.38 0-10.43-8.66-18.88-19.34-18.88-4.55 0-8.72 1.54-12.02 4.11-4.45-8.23-13.29-13.84-23.48-13.84z" fill="#424242" opacity=".2"/><g fill="#64b5f6"><g><path d="m21.61 104.5-.63.02c-.83.03-1.52-.62-1.55-1.45l-.67-21.17c-.03-.83.62-1.52 1.45-1.55l.63-.02c.83-.03 1.52.62 1.55 1.45l.68 21.17c.02.83-.63 1.52-1.46 1.55z"/><path d="m30.95 95.56-6.15-3.26 5.93-3.64c.87-.53 1.17-1.73.67-2.67s-1.61-1.28-2.48-.74l-8.09 4.97-8.39-4.44c-.9-.48-1.99-.07-2.42.9-.44.97-.06 2.15.84 2.63l6.16 3.25-5.93 3.64c-.87.53-1.17 1.73-.67 2.67s1.61 1.28 2.48.74l8.09-4.97 8.39 4.44c.9.48 1.99.07 2.42-.9s.05-2.15-.85-2.62z"/></g><g><path d="m97.88 82.66.36-.51c.48-.67 1.42-.83 2.09-.35l17.25 12.29c.67.48.83 1.42.35 2.09l-.36.51c-.48.67-1.42.83-2.09.35l-17.25-12.28c-.67-.49-.83-1.42-.35-2.1z"/><path d="m99.33 95.51 6.32-2.92-.7 6.93c-.1 1.01.67 1.98 1.72 2.16s1.99-.5 2.09-1.52l.95-9.44 8.62-3.98c.93-.43 1.26-1.53.75-2.47s-1.67-1.35-2.6-.92l-6.32 2.92.7-6.93c.1-1.02-.67-1.98-1.72-2.16s-1.99.5-2.09 1.52l-.95 9.44-8.62 3.98c-.93.43-1.26 1.53-.75 2.47s1.68 1.35 2.6.92z"/></g><g><path d="m62.17 112.31-.61-.13c-.81-.17-1.33-.97-1.15-1.78l4.46-20.71c.17-.81.97-1.33 1.78-1.15l.61.13c.81.17 1.33.97 1.15 1.78l-4.46 20.71c-.17.81-.97 1.33-1.78 1.15z"/><path d="m73.4 105.89-5.19-4.65 6.64-2.1c.97-.31 1.55-1.4 1.3-2.43-.26-1.04-1.25-1.63-2.22-1.32l-9.05 2.86-7.07-6.33c-.76-.68-1.91-.55-2.57.29s-.58 2.07.18 2.75l5.19 4.65-6.64 2.1c-.97.31-1.55 1.4-1.3 2.43.25 1.04 1.25 1.63 2.22 1.32l9.05-2.86 7.07 6.33c.76.68 1.91.55 2.57-.29s.58-2.07-.18-2.75z"/></g></g><g fill="#90caf9"><path d="m32.23 117.52c-.45-.45-.45-1.18 0-1.63l9.23-9.23c.45-.45 1.18-.45 1.63 0s.45 1.18 0 1.63l-9.23 9.23c-.45.45-1.18.45-1.63 0z"/><path d="m40.57 118.1-1.17-4.27 4.27 1.17c.62.17 1.31-.21 1.53-.85s-.11-1.3-.73-1.47l-5.82-1.59-1.59-5.82c-.17-.62-.83-.95-1.47-.73s-1.02.91-.85 1.53l1.17 4.27-4.27-1.17c-.62-.17-1.31.21-1.53.85s.11 1.3.73 1.47l5.82 1.59 1.59 5.82c.17.62.83.95 1.47.73s1.02-.9.85-1.53z"/></g><g fill="#90caf9"><path d="m88.94 117.06c-.58-.27-.83-.95-.56-1.53l5.48-11.85c.27-.58.95-.83 1.53-.56s.83.95.56 1.53l-5.48 11.85c-.27.58-.95.83-1.53.56z"/><path d="m96.97 114.73-2.57-3.6 4.41-.38c.65-.06 1.16-.65 1.14-1.33-.01-.68-.55-1.18-1.19-1.13l-6.01.52-3.5-4.91c-.38-.53-1.11-.61-1.63-.18s-.65 1.2-.27 1.73l2.57 3.6-4.41.38c-.65.06-1.16.65-1.14 1.33.01.68.55 1.18 1.19 1.13l6.01-.52 3.5 4.91c.38.53 1.11.61 1.63.18s.64-1.21.27-1.73z"/></g></svg>